<mxfile host="app.diagrams.net" agent="Mozilla/5.0 (Macintosh; Intel Mac OS X 10_15_7) AppleWebKit/537.36 (KHTML, like Gecko) Chrome/127.0.0.0 Safari/537.36" version="24.7.7">
  <diagram name="第 1 页" id="r9lGWfKbHOxzoMpA2iHb">
    <mxGraphModel dx="2207" dy="761" grid="1" gridSize="10" guides="1" tooltips="1" connect="1" arrows="1" fold="1" page="1" pageScale="1" pageWidth="827" pageHeight="1169" math="0" shadow="0">
      <root>
        <mxCell id="0" />
        <mxCell id="1" parent="0" />
        <mxCell id="Lfi9uycf40btNBjXxdBj-1" value="&lt;div style=&quot;background-color:#ffffff;color:#080808&quot;&gt;&lt;pre style=&quot;&quot;&gt;&lt;span style=&quot;color: rgb(0, 0, 0);&quot;&gt;&lt;font style=&quot;font-size: 12px;&quot; face=&quot;Helvetica&quot;&gt;DataTopicConfig&lt;/font&gt;&lt;/span&gt;&lt;/pre&gt;&lt;/div&gt;" style="shape=umlLifeline;perimeter=lifelinePerimeter;whiteSpace=wrap;html=1;container=1;dropTarget=0;collapsible=0;recursiveResize=0;outlineConnect=0;portConstraint=eastwest;newEdgeStyle={&quot;curved&quot;:0,&quot;rounded&quot;:0};" vertex="1" parent="1">
          <mxGeometry x="-10" y="110" width="140" height="420" as="geometry" />
        </mxCell>
        <mxCell id="Lfi9uycf40btNBjXxdBj-2" value="dispatch" style="html=1;verticalAlign=bottom;startArrow=oval;endArrow=block;startSize=8;curved=0;rounded=0;entryX=0;entryY=0;entryDx=0;entryDy=5;" edge="1" parent="Lfi9uycf40btNBjXxdBj-1" target="Lfi9uycf40btNBjXxdBj-10">
          <mxGeometry relative="1" as="geometry">
            <mxPoint x="180" y="245" as="sourcePoint" />
          </mxGeometry>
        </mxCell>
        <mxCell id="Lfi9uycf40btNBjXxdBj-3" value="" style="html=1;points=[[0,0,0,0,5],[0,1,0,0,-5],[1,0,0,0,5],[1,1,0,0,-5]];perimeter=orthogonalPerimeter;outlineConnect=0;targetShapes=umlLifeline;portConstraint=eastwest;newEdgeStyle={&quot;curved&quot;:0,&quot;rounded&quot;:0};" vertex="1" parent="Lfi9uycf40btNBjXxdBj-1">
          <mxGeometry x="65" y="80" width="10" height="120" as="geometry" />
        </mxCell>
        <mxCell id="Lfi9uycf40btNBjXxdBj-4" value="" style="html=1;points=[[0,0,0,0,5],[0,1,0,0,-5],[1,0,0,0,5],[1,1,0,0,-5]];perimeter=orthogonalPerimeter;outlineConnect=0;targetShapes=umlLifeline;portConstraint=eastwest;newEdgeStyle={&quot;curved&quot;:0,&quot;rounded&quot;:0};" vertex="1" parent="Lfi9uycf40btNBjXxdBj-1">
          <mxGeometry x="70" y="110" width="10" height="40" as="geometry" />
        </mxCell>
        <mxCell id="Lfi9uycf40btNBjXxdBj-5" value="初始化RabbitMQ&lt;div&gt;绑定多个交换机与队列并监听&lt;/div&gt;" style="html=1;align=left;spacingLeft=2;endArrow=block;rounded=0;edgeStyle=orthogonalEdgeStyle;curved=0;rounded=0;" edge="1" parent="Lfi9uycf40btNBjXxdBj-1" target="Lfi9uycf40btNBjXxdBj-4">
          <mxGeometry relative="1" as="geometry">
            <mxPoint x="75" y="90" as="sourcePoint" />
            <Array as="points">
              <mxPoint x="105" y="120" />
            </Array>
          </mxGeometry>
        </mxCell>
        <mxCell id="Lfi9uycf40btNBjXxdBj-6" value="&lt;div style=&quot;background-color:#ffffff;color:#080808&quot;&gt;&lt;pre style=&quot;&quot;&gt;&lt;span style=&quot;color: rgb(0, 0, 0);&quot;&gt;&lt;font style=&quot;font-size: 12px;&quot; face=&quot;Helvetica&quot;&gt;PointValueReceiver&lt;/font&gt;&lt;/span&gt;&lt;/pre&gt;&lt;/div&gt;" style="shape=umlLifeline;perimeter=lifelinePerimeter;whiteSpace=wrap;html=1;container=1;dropTarget=0;collapsible=0;recursiveResize=0;outlineConnect=0;portConstraint=eastwest;newEdgeStyle={&quot;curved&quot;:0,&quot;rounded&quot;:0};" vertex="1" parent="1">
          <mxGeometry x="210" y="110" width="100" height="420" as="geometry" />
        </mxCell>
        <mxCell id="Lfi9uycf40btNBjXxdBj-7" value="" style="html=1;points=[[0,0,0,0,5],[0,1,0,0,-5],[1,0,0,0,5],[1,1,0,0,-5]];perimeter=orthogonalPerimeter;outlineConnect=0;targetShapes=umlLifeline;portConstraint=eastwest;newEdgeStyle={&quot;curved&quot;:0,&quot;rounded&quot;:0};" vertex="1" parent="Lfi9uycf40btNBjXxdBj-6">
          <mxGeometry x="45" y="120" width="10" height="80" as="geometry" />
        </mxCell>
        <mxCell id="Lfi9uycf40btNBjXxdBj-8" value="" style="html=1;points=[[0,0,0,0,5],[0,1,0,0,-5],[1,0,0,0,5],[1,1,0,0,-5]];perimeter=orthogonalPerimeter;outlineConnect=0;targetShapes=umlLifeline;portConstraint=eastwest;newEdgeStyle={&quot;curved&quot;:0,&quot;rounded&quot;:0};" vertex="1" parent="Lfi9uycf40btNBjXxdBj-6">
          <mxGeometry x="50" y="150" width="10" height="40" as="geometry" />
        </mxCell>
        <mxCell id="Lfi9uycf40btNBjXxdBj-9" value="初始化监听指定队列" style="html=1;align=left;spacingLeft=2;endArrow=block;rounded=0;edgeStyle=orthogonalEdgeStyle;curved=0;rounded=0;" edge="1" parent="Lfi9uycf40btNBjXxdBj-6" target="Lfi9uycf40btNBjXxdBj-8">
          <mxGeometry relative="1" as="geometry">
            <mxPoint x="55" y="130" as="sourcePoint" />
            <Array as="points">
              <mxPoint x="85" y="160" />
            </Array>
          </mxGeometry>
        </mxCell>
        <mxCell id="Lfi9uycf40btNBjXxdBj-10" value="" style="html=1;points=[[0,0,0,0,5],[0,1,0,0,-5],[1,0,0,0,5],[1,1,0,0,-5]];perimeter=orthogonalPerimeter;outlineConnect=0;targetShapes=umlLifeline;portConstraint=eastwest;newEdgeStyle={&quot;curved&quot;:0,&quot;rounded&quot;:0};" vertex="1" parent="Lfi9uycf40btNBjXxdBj-6">
          <mxGeometry x="45" y="240" width="10" height="120" as="geometry" />
        </mxCell>
        <mxCell id="Lfi9uycf40btNBjXxdBj-11" value="&lt;div style=&quot;background-color:#ffffff;color:#080808&quot;&gt;&lt;pre style=&quot;&quot;&gt;&lt;font style=&quot;font-size: 12px;&quot; face=&quot;Helvetica&quot;&gt;PointValueService&lt;/font&gt;&lt;/pre&gt;&lt;/div&gt;" style="shape=umlLifeline;perimeter=lifelinePerimeter;whiteSpace=wrap;html=1;container=1;dropTarget=0;collapsible=0;recursiveResize=0;outlineConnect=0;portConstraint=eastwest;newEdgeStyle={&quot;curved&quot;:0,&quot;rounded&quot;:0};" vertex="1" parent="1">
          <mxGeometry x="390" y="110" width="100" height="420" as="geometry" />
        </mxCell>
        <mxCell id="Lfi9uycf40btNBjXxdBj-12" value="" style="html=1;points=[[0,0,0,0,5],[0,1,0,0,-5],[1,0,0,0,5],[1,1,0,0,-5]];perimeter=orthogonalPerimeter;outlineConnect=0;targetShapes=umlLifeline;portConstraint=eastwest;newEdgeStyle={&quot;curved&quot;:0,&quot;rounded&quot;:0};" vertex="1" parent="Lfi9uycf40btNBjXxdBj-11">
          <mxGeometry x="45" y="250" width="10" height="100" as="geometry" />
        </mxCell>
        <mxCell id="Lfi9uycf40btNBjXxdBj-13" value="接收到驱动&lt;div&gt;发送过来的消息&lt;/div&gt;" style="text;html=1;align=center;verticalAlign=middle;resizable=0;points=[];autosize=1;strokeColor=none;fillColor=none;" vertex="1" parent="1">
          <mxGeometry x="150" y="360" width="110" height="40" as="geometry" />
        </mxCell>
        <mxCell id="Lfi9uycf40btNBjXxdBj-14" value="dispatch" style="html=1;verticalAlign=bottom;endArrow=block;curved=0;rounded=0;entryX=0;entryY=0;entryDx=0;entryDy=5;" edge="1" parent="1" source="Lfi9uycf40btNBjXxdBj-10" target="Lfi9uycf40btNBjXxdBj-12">
          <mxGeometry relative="1" as="geometry">
            <mxPoint x="365" y="365" as="sourcePoint" />
          </mxGeometry>
        </mxCell>
        <mxCell id="Lfi9uycf40btNBjXxdBj-15" value="return" style="html=1;verticalAlign=bottom;endArrow=open;dashed=1;endSize=8;curved=0;rounded=0;exitX=0;exitY=1;exitDx=0;exitDy=-5;" edge="1" parent="1" source="Lfi9uycf40btNBjXxdBj-12" target="Lfi9uycf40btNBjXxdBj-10">
          <mxGeometry relative="1" as="geometry">
            <mxPoint x="365" y="435" as="targetPoint" />
          </mxGeometry>
        </mxCell>
        <mxCell id="Lfi9uycf40btNBjXxdBj-16" style="edgeStyle=orthogonalEdgeStyle;rounded=0;orthogonalLoop=1;jettySize=auto;html=1;curved=0;" edge="1" parent="1" source="Lfi9uycf40btNBjXxdBj-3" target="Lfi9uycf40btNBjXxdBj-7">
          <mxGeometry relative="1" as="geometry">
            <mxPoint x="275" y="250" as="targetPoint" />
            <Array as="points">
              <mxPoint x="210" y="250" />
              <mxPoint x="210" y="250" />
            </Array>
          </mxGeometry>
        </mxCell>
        <mxCell id="Lfi9uycf40btNBjXxdBj-17" value="&lt;div style=&quot;background-color:#ffffff;color:#080808&quot;&gt;&lt;pre style=&quot;&quot;&gt;&lt;font style=&quot;font-size: 12px;&quot; face=&quot;Helvetica&quot;&gt;RedisRepositoryService&lt;/font&gt;&lt;/pre&gt;&lt;/div&gt;" style="shape=umlLifeline;perimeter=lifelinePerimeter;whiteSpace=wrap;html=1;container=1;dropTarget=0;collapsible=0;recursiveResize=0;outlineConnect=0;portConstraint=eastwest;newEdgeStyle={&quot;curved&quot;:0,&quot;rounded&quot;:0};" vertex="1" parent="1">
          <mxGeometry x="530" y="110" width="140" height="420" as="geometry" />
        </mxCell>
        <mxCell id="Lfi9uycf40btNBjXxdBj-18" value="" style="html=1;points=[[0,0,0,0,5],[0,1,0,0,-5],[1,0,0,0,5],[1,1,0,0,-5]];perimeter=orthogonalPerimeter;outlineConnect=0;targetShapes=umlLifeline;portConstraint=eastwest;newEdgeStyle={&quot;curved&quot;:0,&quot;rounded&quot;:0};" vertex="1" parent="Lfi9uycf40btNBjXxdBj-17">
          <mxGeometry x="65" y="260" width="10" height="40" as="geometry" />
        </mxCell>
        <mxCell id="Lfi9uycf40btNBjXxdBj-20" style="edgeStyle=orthogonalEdgeStyle;rounded=0;orthogonalLoop=1;jettySize=auto;html=1;curved=0;" edge="1" parent="1">
          <mxGeometry relative="1" as="geometry">
            <mxPoint x="445" y="379.5" as="sourcePoint" />
            <mxPoint x="595" y="379.5" as="targetPoint" />
            <Array as="points">
              <mxPoint x="560" y="379.5" />
              <mxPoint x="560" y="379.5" />
            </Array>
          </mxGeometry>
        </mxCell>
        <mxCell id="Lfi9uycf40btNBjXxdBj-21" value="在Redis保存设备在线状态&lt;div&gt;与最后一次上报信息&lt;/div&gt;" style="text;html=1;align=center;verticalAlign=middle;resizable=0;points=[];autosize=1;strokeColor=none;fillColor=none;" vertex="1" parent="1">
          <mxGeometry x="440" y="330" width="160" height="40" as="geometry" />
        </mxCell>
        <mxCell id="Lfi9uycf40btNBjXxdBj-22" value="return" style="html=1;verticalAlign=bottom;endArrow=open;dashed=1;endSize=8;curved=0;rounded=0;" edge="1" parent="1">
          <mxGeometry relative="1" as="geometry">
            <mxPoint x="595" y="399" as="sourcePoint" />
            <mxPoint x="445" y="399" as="targetPoint" />
          </mxGeometry>
        </mxCell>
        <mxCell id="Lfi9uycf40btNBjXxdBj-23" value="" style="html=1;points=[[0,0,0,0,5],[0,1,0,0,-5],[1,0,0,0,5],[1,1,0,0,-5]];perimeter=orthogonalPerimeter;outlineConnect=0;targetShapes=umlLifeline;portConstraint=eastwest;newEdgeStyle={&quot;curved&quot;:0,&quot;rounded&quot;:0};" vertex="1" parent="1">
          <mxGeometry x="795" y="410" width="10" height="40" as="geometry" />
        </mxCell>
        <mxCell id="Lfi9uycf40btNBjXxdBj-25" value="dispatch" style="html=1;verticalAlign=bottom;endArrow=block;curved=0;rounded=0;entryX=0;entryY=0;entryDx=0;entryDy=5;" edge="1" parent="1" source="Lfi9uycf40btNBjXxdBj-12" target="Lfi9uycf40btNBjXxdBj-23">
          <mxGeometry x="0.1143" y="5" relative="1" as="geometry">
            <mxPoint x="650" y="465" as="sourcePoint" />
            <mxPoint as="offset" />
          </mxGeometry>
        </mxCell>
        <mxCell id="Lfi9uycf40btNBjXxdBj-26" value="return" style="html=1;verticalAlign=bottom;endArrow=open;dashed=1;endSize=8;curved=0;rounded=0;exitX=0;exitY=1;exitDx=0;exitDy=-5;" edge="1" parent="1" source="Lfi9uycf40btNBjXxdBj-23" target="Lfi9uycf40btNBjXxdBj-12">
          <mxGeometry relative="1" as="geometry">
            <mxPoint x="650" y="535" as="targetPoint" />
          </mxGeometry>
        </mxCell>
        <mxCell id="Lfi9uycf40btNBjXxdBj-27" value="持久化数据库支持，存储到时序数据库中" style="text;html=1;align=center;verticalAlign=middle;resizable=0;points=[];autosize=1;strokeColor=none;fillColor=none;" vertex="1" parent="1">
          <mxGeometry x="525" y="410" width="240" height="30" as="geometry" />
        </mxCell>
        <mxCell id="Lfi9uycf40btNBjXxdBj-30" value="&lt;div style=&quot;background-color:#ffffff;color:#080808&quot;&gt;&lt;pre style=&quot;&quot;&gt;&lt;span style=&quot;color: rgb(0, 0, 0);&quot;&gt;&lt;font style=&quot;font-size: 12px;&quot; face=&quot;Helvetica&quot;&gt;RepositoryService&lt;/font&gt;&lt;/span&gt;&lt;/pre&gt;&lt;/div&gt;" style="shape=umlLifeline;perimeter=lifelinePerimeter;whiteSpace=wrap;html=1;container=1;dropTarget=0;collapsible=0;recursiveResize=0;outlineConnect=0;portConstraint=eastwest;newEdgeStyle={&quot;curved&quot;:0,&quot;rounded&quot;:0};" vertex="1" parent="1">
          <mxGeometry x="750" y="110" width="100" height="430" as="geometry" />
        </mxCell>
        <mxCell id="Lfi9uycf40btNBjXxdBj-31" value="" style="html=1;points=[[0,0,0,0,5],[0,1,0,0,-5],[1,0,0,0,5],[1,1,0,0,-5]];perimeter=orthogonalPerimeter;outlineConnect=0;targetShapes=umlLifeline;portConstraint=eastwest;newEdgeStyle={&quot;curved&quot;:0,&quot;rounded&quot;:0};" vertex="1" parent="Lfi9uycf40btNBjXxdBj-30">
          <mxGeometry x="45" y="300" width="10" height="40" as="geometry" />
        </mxCell>
      </root>
    </mxGraphModel>
  </diagram>
</mxfile>
